<?xml version="1.0" standalone="no"?>
<!DOCTYPE svg PUBLIC "-//W3C//DTD SVG 20010904//EN"
 "http://www.w3.org/TR/2001/REC-SVG-20010904/DTD/svg10.dtd">
<svg version="1.0" xmlns="http://www.w3.org/2000/svg"
 width="522.000000pt" height="522.000000pt" viewBox="0 0 522.000000 522.000000"
 preserveAspectRatio="xMidYMid meet">
<metadata>
Created by potrace 1.14, written by Peter Selinger 2001-2017
</metadata>
<g transform="translate(0.000000,522.000000) scale(0.100000,-0.100000)"
fill="#000000" stroke="none">
<path d="M2110 5178 c0 -4 4 -8 9 -8 6 0 12 4 15 8 3 5 -1 9 -9 9 -8 0 -15 -4
-15 -9z"/>
<path d="M2122 5161 c-11 -6 -10 -11 3 -25 15 -15 15 -16 -2 -16 -15 0 -16 -2
-3 -10 13 -9 13 -10 0 -10 -13 0 -13 -1 0 -10 13 -9 13 -10 0 -10 -12 0 -12
-2 -1 -9 9 -6 10 -10 2 -16 -9 -5 -9 -10 -1 -20 8 -10 8 -15 0 -20 -8 -5 -8
-11 1 -21 9 -11 8 -18 -2 -31 -8 -10 -9 -14 -2 -10 8 5 11 0 10 -13 -1 -11 -6
-20 -12 -20 -7 0 -7 -3 0 -8 14 -10 17 -74 3 -66 -7 5 -8 2 -2 -7 13 -21 14
-39 1 -39 -9 0 -9 -2 -1 -8 14 -9 14 -43 0 -61 -8 -11 -8 -13 1 -7 15 9 15
-42 0 -61 -6 -9 -6 -13 2 -13 6 0 11 -7 11 -16 0 -8 -4 -13 -8 -10 -5 3 -9 -1
-9 -9 0 -8 4 -12 9 -9 10 6 6 -26 -6 -45 -6 -10 -5 -12 2 -7 8 5 12 -1 12 -14
0 -13 -4 -19 -12 -14 -8 5 -8 3 -2 -7 13 -21 13 -123 0 -131 -7 -5 -8 -8 0 -8
6 0 10 -21 9 -52 0 -29 3 -61 8 -72 6 -12 5 -16 -1 -12 -5 3 -13 -1 -16 -10
-9 -23 -7 -31 3 -15 6 10 9 -7 8 -50 0 -35 -6 -67 -12 -71 -6 -5 -6 -8 3 -8 6
0 12 -12 12 -26 0 -17 -4 -23 -12 -18 -10 6 -10 4 -2 -7 16 -20 17 -349 1
-349 -7 0 -5 -5 4 -10 13 -7 15 -17 9 -42 -4 -19 -12 -32 -19 -30 -7 1 -19 -2
-26 -8 -10 -8 -14 -7 -18 2 -3 8 -6 6 -6 -6 -1 -15 -4 -16 -15 -7 -12 10 -14
8 -10 -11 5 -20 4 -21 -6 -5 -11 17 -13 16 -31 -5 -11 -13 -18 -17 -14 -11 4
9 1 11 -9 7 -9 -3 -13 -11 -9 -17 4 -6 1 -7 -6 -3 -7 5 -19 0 -27 -10 -9 -11
-13 -14 -10 -8 3 6 -1 11 -9 11 -8 0 -12 -4 -9 -9 3 -4 1 -8 -5 -8 -6 0 -8 -8
-5 -17 5 -14 4 -15 -4 -4 -8 11 -14 9 -33 -8 -59 -54 -62 -56 -54 -41 8 13 6
13 -8 1 -9 -7 -14 -17 -11 -22 3 -5 0 -8 -8 -7 -7 2 -12 -2 -11 -9 2 -8 -4
-10 -14 -6 -10 4 -14 2 -10 -4 4 -6 0 -13 -8 -17 -8 -3 -17 0 -21 6 -5 7 -2 8
6 3 9 -5 11 -4 6 3 -4 7 -14 12 -22 12 -8 0 -14 8 -14 17 0 9 -3 13 -6 10 -4
-4 -15 2 -25 14 -12 14 -18 16 -22 7 -3 -7 -6 -3 -6 9 -1 19 -32 40 -53 35 -4
-1 -5 5 -2 13 4 10 0 15 -16 15 -11 0 -19 3 -17 8 6 9 -19 33 -27 25 -3 -4 -6
1 -6 10 0 15 -11 22 -32 18 -5 0 -8 9 -8 22 0 18 -2 19 -10 7 -6 -10 -10 -11
-10 -2 0 6 -7 12 -16 12 -8 0 -13 4 -10 8 3 5 -6 19 -19 30 -15 13 -25 17 -25
10 0 -7 -8 -1 -17 12 -21 30 -40 51 -48 50 -20 -1 -25 2 -25 15 0 8 -7 15 -16
15 -8 0 -12 5 -9 10 3 6 -3 10 -15 10 -14 0 -19 4 -14 12 5 8 2 9 -11 4 -15
-5 -16 -4 -5 9 10 12 10 15 -4 15 -9 0 -28 13 -44 29 -20 22 -32 27 -42 21
-11 -7 -12 -10 -2 -10 7 0 10 -5 7 -10 -4 -6 -10 -8 -14 -6 -4 3 -8 -1 -8 -9
0 -8 3 -12 7 -10 4 2 7 -2 7 -10 0 -8 -4 -12 -8 -10 -3 3 -9 -6 -11 -20 -3
-15 -1 -25 6 -25 6 0 5 -4 -3 -9 -7 -5 -11 -13 -7 -19 3 -6 2 -13 -4 -17 -5
-3 -10 -23 -10 -44 0 -20 -6 -43 -12 -50 -10 -11 -10 -13 0 -7 15 9 16 -10 2
-19 -7 -4 -7 -12 -2 -18 5 -7 9 -23 10 -37 1 -19 -1 -21 -8 -10 -8 13 -10 12
-10 -2 0 -10 6 -18 13 -18 8 0 7 -4 -3 -10 -13 -9 -13 -10 0 -10 13 0 13 -1 0
-10 -13 -8 -13 -10 0 -10 11 0 11 -3 2 -12 -9 -9 -7 -14 6 -24 12 -10 13 -13
3 -14 -10 0 -10 -6 4 -26 9 -15 12 -24 7 -20 -6 3 -13 2 -17 -4 -3 -5 2 -10
12 -10 15 0 16 -2 3 -10 -10 -6 -11 -10 -2 -10 6 0 11 -3 11 -7 -1 -5 -1 -23
0 -41 1 -23 5 -31 14 -26 9 5 9 4 0 -6 -9 -10 -9 -17 2 -34 14 -20 15 -25 15
-47 0 -5 5 -7 11 -3 8 5 8 1 0 -14 -9 -17 -8 -23 4 -29 8 -5 16 -21 17 -35 1
-15 6 -24 10 -22 7 5 12 -10 9 -28 0 -5 3 -8 8 -8 5 0 14 -13 21 -30 7 -16 16
-30 21 -30 5 0 9 -7 9 -15 0 -8 4 -15 10 -15 5 0 7 -8 3 -17 -3 -10 -3 -15 1
-11 5 4 18 -4 31 -17 12 -14 24 -22 27 -20 3 3 5 -9 4 -27 -1 -19 -6 -32 -13
-31 -6 1 -14 -4 -17 -13 -4 -10 -1 -13 7 -9 6 4 1 -2 -13 -13 -14 -12 -21 -24
-18 -28 4 -4 0 -13 -10 -21 -12 -10 -14 -16 -4 -19 6 -3 12 -10 12 -15 0 -6
-4 -7 -10 -4 -8 5 -15 -28 -12 -56 1 -3 2 -25 3 -48 2 -22 8 -41 13 -41 6 0 4
-5 -4 -10 -10 -6 -11 -10 -2 -10 6 0 12 -12 12 -27 0 -14 7 -35 17 -45 11 -12
12 -18 4 -18 -8 0 -7 -5 3 -16 9 -8 16 -21 16 -29 0 -7 5 -15 10 -17 6 -2 12
-13 13 -25 0 -12 4 -20 7 -18 3 2 12 -10 19 -26 8 -18 17 -26 24 -22 7 4 6 -1
-2 -10 -12 -15 -11 -17 2 -17 9 0 19 -5 23 -12 5 -7 3 -8 -7 -3 -11 7 -12 6
-2 -7 7 -8 9 -19 5 -24 -4 -4 1 -2 11 5 15 12 17 11 17 -13 0 -16 4 -25 10
-21 10 6 14 -7 11 -34 -2 -8 3 -10 11 -6 7 4 7 1 -2 -7 -8 -7 -16 -20 -18 -28
-2 -8 -8 -16 -13 -18 -5 -2 -5 -12 2 -23 7 -14 7 -19 -3 -17 -6 2 -12 -1 -13
-7 -2 -26 -27 -56 -42 -51 -14 6 -14 4 -2 -11 9 -11 10 -14 2 -9 -7 4 -13 2
-13 -3 0 -6 -8 -11 -17 -11 -15 0 -16 -2 -3 -10 13 -8 12 -10 -3 -10 -9 0 -16
-3 -16 -7 3 -20 -2 -34 -10 -29 -5 3 -12 -1 -15 -10 -4 -10 -2 -13 7 -9 6 4 1
-3 -13 -15 -14 -12 -18 -18 -11 -14 9 4 5 -6 -8 -24 -12 -18 -20 -36 -17 -40
3 -5 -2 -22 -10 -38 -9 -16 -14 -41 -11 -57 2 -15 1 -27 -2 -27 -3 0 -5 -21
-4 -47 1 -27 2 -58 2 -71 1 -16 5 -21 13 -16 9 5 9 2 -1 -9 -8 -10 -9 -17 -3
-17 6 0 9 -9 7 -20 -2 -11 1 -22 6 -25 5 -4 7 -11 4 -16 -4 -5 -2 -9 3 -9 6 0
9 -13 8 -29 -1 -20 2 -27 11 -24 12 5 19 -22 14 -50 -1 -5 2 -6 6 -4 5 3 14
-1 21 -9 10 -11 10 -14 0 -14 -7 0 -2 -7 10 -16 20 -14 33 -52 14 -40 -5 3 -9
-1 -9 -9 0 -8 4 -12 9 -9 13 8 9 -20 -4 -35 -10 -11 -10 -12 -1 -7 9 5 11 2 7
-8 -3 -9 -9 -16 -13 -16 -4 0 -6 -16 -6 -36 1 -23 -4 -38 -13 -41 -11 -5 -11
-7 0 -14 8 -5 8 -9 2 -9 -11 0 -10 -52 1 -71 4 -5 0 -9 -7 -9 -9 -1 -7 -5 5
-14 9 -7 17 -19 17 -25 0 -7 5 -9 13 -5 9 6 9 4 -1 -8 -11 -14 -10 -17 7 -23
12 -3 21 -11 21 -16 0 -6 4 -8 9 -5 5 3 11 -1 15 -9 3 -8 12 -15 20 -15 11 0
15 -8 12 -30 -2 -16 -1 -32 2 -35 3 -3 5 -26 5 -53 -1 -26 4 -53 9 -60 8 -10
6 -11 -8 -5 -16 6 -17 5 -6 -9 9 -11 10 -18 2 -23 -6 -3 -8 -10 -5 -15 3 -5
-4 -12 -16 -15 -17 -6 -19 -9 -8 -16 10 -6 11 -9 2 -9 -7 0 -13 -9 -13 -19 0
-11 -5 -23 -10 -26 -6 -4 -8 -10 -5 -15 3 -4 7 -25 10 -46 2 -22 9 -40 15 -42
5 -2 10 -9 10 -17 0 -7 8 -19 17 -26 17 -13 17 -13 3 5 -14 18 -14 18 7 6 12
-8 20 -17 17 -21 -2 -4 0 -9 6 -11 5 -1 10 -20 12 -41 1 -21 6 -41 10 -43 4
-3 3 -14 -3 -26 -7 -13 -7 -18 -1 -14 6 3 13 2 17 -4 3 -5 1 -10 -6 -10 -9 0
-9 -4 1 -15 6 -8 9 -19 6 -24 -4 -5 2 -16 11 -23 10 -7 19 -20 21 -28 2 -8 7
-16 12 -18 5 -2 6 -10 3 -19 -4 -11 -2 -14 5 -9 6 4 24 -6 39 -22 36 -36 85
-67 101 -64 6 2 12 -2 12 -8 0 -7 6 -7 21 1 12 6 19 7 15 1 -3 -5 1 -13 10
-16 8 -3 12 -2 9 4 -3 6 1 7 9 4 9 -3 13 -11 9 -18 -4 -6 1 -5 10 3 13 10 17
10 17 1 0 -8 4 -9 13 -3 14 11 27 11 45 0 7 -5 12 -3 12 5 0 10 2 10 9 -1 6
-10 10 -10 16 -1 6 9 9 9 15 -1 7 -10 11 -10 24 0 12 11 16 11 16 1 0 -10 3
-10 14 -1 10 8 16 9 21 1 3 -5 11 -10 16 -10 6 0 8 4 5 8 -6 10 25 9 42 -2 7
-4 12 -2 12 4 0 8 6 8 20 0 15 -8 20 -8 20 2 0 10 2 10 9 -1 6 -9 10 -10 16
-2 5 9 10 9 21 0 11 -9 17 -9 28 0 10 8 16 9 21 1 3 -6 12 -7 18 -3 16 10 39
10 54 0 6 -4 14 -3 18 3 4 6 12 7 18 2 15 -10 27 -10 46 2 10 6 12 5 7 -3 -5
-8 0 -10 18 -7 14 3 30 7 35 10 5 4 13 2 16 -4 5 -8 11 -8 20 0 9 8 15 8 20 0
3 -5 11 -10 16 -10 6 0 7 6 3 13 -6 9 -5 9 7 0 12 -10 18 -10 29 0 9 8 11 8 6
0 -7 -13 51 -13 73 1 9 6 12 5 7 -2 -4 -7 4 -10 24 -10 16 1 30 6 30 12 0 7 3
7 8 1 11 -15 56 -19 47 -4 -6 8 -4 10 6 3 24 -14 51 -16 43 -2 -6 10 -4 10 7
2 18 -14 49 -14 49 0 0 6 4 5 9 -3 8 -13 12 -13 27 0 10 8 15 9 11 2 -10 -15
114 -14 125 2 5 7 8 6 8 -1 0 -6 14 -11 30 -12 21 0 28 3 23 11 -5 9 -3 9 8 1
20 -16 469 -16 488 -1 12 9 13 9 7 0 -5 -10 19 -13 104 -12 130 0 144 3 130
29 -13 24 -13 33 1 24 8 -4 8 0 0 15 -7 11 -8 21 -4 21 4 0 2 5 -5 12 -7 7 -8
17 -2 29 7 12 6 20 -1 24 -5 4 -9 19 -8 33 2 15 0 32 -4 39 -4 6 -3 14 3 18 7
4 7 12 0 24 -5 10 -6 21 -3 25 3 3 0 6 -8 6 -11 0 -11 2 1 10 10 6 11 10 3 10
-7 0 -13 5 -13 11 0 5 6 7 13 3 8 -5 8 -3 -2 9 -7 9 -11 28 -9 42 3 14 2 28
-2 30 -4 2 -5 17 -2 31 3 15 1 24 -4 21 -6 -3 -10 3 -10 13 0 10 3 17 6 15 3
-2 6 9 5 25 0 15 -3 26 -6 24 -4 -2 -9 10 -11 26 -3 17 0 30 6 30 6 0 4 5 -4
10 -13 8 -13 10 -1 10 11 0 12 3 4 11 -6 6 -9 18 -6 27 4 9 2 13 -4 9 -5 -3
-10 0 -10 8 0 8 3 12 7 10 4 -2 7 2 7 10 0 8 -4 12 -9 9 -13 -8 -10 10 5 25 8
10 8 12 0 7 -7 -4 -12 0 -12 11 1 63 -5 113 -13 113 -6 0 -5 7 2 15 10 12 10
15 0 15 -9 0 -9 4 1 17 10 11 10 14 2 9 -8 -4 -13 -1 -13 9 0 9 4 14 10 10 5
-3 3 7 -5 22 -10 19 -11 29 -4 34 8 5 8 8 1 13 -6 4 -8 14 -5 23 4 10 2 14 -4
10 -5 -3 -10 0 -10 8 0 8 5 11 11 8 6 -4 5 1 -3 10 -11 14 -11 17 0 17 11 0
11 2 -1 10 -12 8 -13 11 -1 19 8 5 9 10 2 12 -6 2 -12 32 -13 66 -1 34 -6 59
-10 57 -12 -8 -9 11 4 24 9 9 9 12 -1 12 -11 0 -11 3 0 17 10 12 11 15 1 9 -9
-6 -13 2 -12 31 1 85 0 93 -12 93 -10 0 -10 2 0 9 17 11 17 21 0 32 -11 7 -10
11 2 19 10 6 11 10 3 10 -8 0 -13 14 -13 38 0 21 -6 44 -12 51 -10 11 -10 13
0 7 7 -4 12 -1 12 8 0 9 -5 16 -11 16 -8 0 -8 5 1 15 9 11 9 15 1 15 -8 0 -9
5 -1 19 7 13 7 22 0 26 -6 3 -9 26 -8 50 2 24 6 41 10 39 4 -2 9 0 13 6 3 5 2
10 -4 10 -6 0 -8 7 -5 15 4 8 11 12 17 8 6 -4 8 0 4 10 -4 10 -1 17 6 17 8 0
6 4 -3 10 -12 8 -12 10 -1 10 8 0 11 3 8 7 -4 3 -1 13 6 21 10 13 9 14 -2 7
-11 -6 -12 -5 -5 6 5 8 9 17 10 22 1 4 2 8 4 10 1 1 3 11 5 22 1 11 6 28 10
38 5 11 3 17 -6 17 -11 0 -11 2 -2 8 7 4 13 31 14 60 1 28 5 49 9 47 4 -2 7 2
7 10 0 8 -4 12 -8 10 -3 -3 -9 4 -12 16 -4 15 -2 18 7 10 8 -7 12 -4 12 12 0
12 -4 25 -10 29 -6 4 -5 12 3 21 9 12 9 16 -1 20 -11 4 -10 6 0 6 8 1 10 6 5
14 -11 18 -13 38 -2 31 12 -7 11 7 -1 26 -5 9 -5 19 2 27 7 9 7 13 -1 13 -6 0
-11 5 -11 11 0 5 4 8 8 5 5 -3 9 1 9 9 0 8 -5 15 -10 15 -5 0 -3 8 4 17 8 9 9
14 3 10 -7 -4 -11 11 -13 45 -1 29 -7 56 -14 60 -9 6 -9 8 2 8 11 0 11 3 0 17
-10 11 -10 14 -1 9 8 -5 12 1 13 18 2 35 3 39 13 55 6 9 5 12 -2 8 -6 -5 -8 0
-5 13 3 11 10 17 17 13 6 -4 5 1 -3 10 -7 9 -9 17 -4 17 5 0 10 7 10 15 0 8
-5 15 -11 15 -6 0 -4 5 4 10 13 8 13 10 1 10 -11 0 -10 4 5 16 10 8 14 13 8
10 -7 -3 -11 4 -11 19 0 15 14 37 39 59 22 20 43 36 47 36 4 0 15 13 24 30 10
17 23 30 28 30 6 0 7 5 4 10 -3 6 -1 10 5 10 6 0 8 5 5 10 -3 6 2 10 12 10 15
0 16 2 3 10 -13 8 -13 10 2 10 9 0 20 5 24 12 5 7 2 8 -7 3 -8 -5 -4 3 9 17
12 13 22 32 22 42 0 12 5 16 16 12 9 -3 12 -2 9 5 -4 5 -1 16 5 24 7 8 10 21
6 30 -3 8 -2 14 2 12 4 -1 8 2 9 6 1 5 10 15 20 24 10 8 12 12 6 8 -17 -8 -16
5 2 28 7 11 11 25 8 33 -3 8 0 14 6 14 6 0 11 14 11 31 0 17 4 28 10 24 6 -4
7 1 3 11 -5 13 -3 15 8 9 11 -7 12 -6 2 6 -10 13 -10 19 1 35 9 12 11 23 5 30
-6 8 -5 17 3 25 7 8 12 31 11 51 0 25 3 36 10 31 6 -4 7 -1 2 8 -15 24 -13 47
4 42 11 -3 10 1 -4 12 -20 17 -20 17 5 10 l25 -7 -23 24 c-16 18 -18 25 -8 25
8 0 12 -5 9 -11 -3 -6 0 -5 8 3 11 10 11 15 2 18 -7 3 -13 11 -13 19 0 9 3 13
8 11 4 -3 8 17 9 44 1 27 -3 51 -8 54 -5 3 -6 -2 -3 -12 5 -15 4 -15 -4 -3 -6
8 -8 18 -6 22 3 4 -1 8 -8 8 -10 0 -10 2 1 9 8 5 15 19 16 30 1 15 -2 18 -10
11 -15 -12 -17 19 -2 38 8 10 7 12 -3 10 -10 -2 -14 7 -13 30 0 17 -5 32 -11
32 -6 0 -5 4 2 9 11 6 10 10 -3 15 -14 5 -15 9 -5 21 9 11 9 15 1 15 -7 0 -9
5 -6 10 3 6 3 19 0 31 -5 15 -10 17 -19 10 -7 -6 -17 -7 -21 -3 -5 4 -5 1 -1
-5 4 -7 3 -13 -3 -13 -5 0 -13 -9 -16 -20 -4 -11 -10 -18 -15 -15 -5 3 -20 -6
-34 -20 -15 -14 -31 -23 -36 -20 -6 4 -7 -1 -3 -11 3 -10 2 -15 -3 -12 -12 8
-35 -17 -26 -28 4 -4 0 -5 -9 -1 -19 6 -64 -35 -52 -48 5 -4 3 -5 -4 -1 -6 3
-14 2 -18 -4 -4 -6 -12 -7 -18 -3 -7 4 -5 -2 3 -12 8 -10 10 -16 3 -12 -6 4
-17 1 -25 -6 -7 -7 -21 -16 -30 -20 -10 -3 -18 -13 -18 -22 0 -8 -7 -15 -15
-15 -8 0 -15 -5 -15 -11 0 -6 -7 -9 -15 -5 -8 3 -14 2 -14 -2 4 -22 -3 -32
-21 -32 -18 0 -25 -11 -21 -34 1 -5 -6 -3 -16 4 -10 8 -15 11 -11 6 7 -9 -27
-46 -43 -46 -6 0 -9 -7 -5 -15 7 -18 -5 -20 -23 -2 -7 6 -12 8 -11 2 5 -23 -1
-35 -16 -35 -9 0 -12 -5 -8 -12 5 -7 2 -9 -8 -5 -17 6 -53 -25 -41 -36 3 -4
-1 -7 -9 -7 -9 0 -19 -7 -22 -16 -3 -9 -13 -14 -21 -11 -10 4 -12 1 -8 -11 3
-9 3 -14 -1 -10 -5 4 -19 -5 -33 -20 -14 -15 -22 -20 -17 -12 6 10 3 9 -8 -2
-20 -22 -28 -23 -28 -3 0 8 -7 15 -15 15 -8 0 -19 9 -25 20 -6 11 -15 20 -21
20 -6 0 -17 7 -26 15 -8 8 -19 13 -24 10 -5 -4 -9 4 -9 16 0 17 -3 19 -14 10
-10 -9 -20 -5 -45 18 -17 16 -34 25 -37 20 -3 -5 -11 -3 -18 4 -8 6 -12 15
-10 18 2 3 -3 6 -11 6 -8 0 -12 -5 -8 -10 3 -5 -6 -2 -20 7 -20 13 -26 14 -30
4 -4 -9 -6 -9 -6 2 -1 9 -11 17 -23 18 -44 4 -56 8 -74 22 -17 13 -18 13 -7
-1 10 -13 10 -16 -2 -16 -8 0 -15 5 -15 10 0 5 -9 7 -20 4 -12 -3 -24 1 -31
11 -9 14 -10 13 -5 -6 4 -22 3 -23 -13 -8 -21 19 -35 21 -25 4 6 -10 4 -10 -7
0 -16 15 -33 16 -23 0 5 -7 3 -8 -7 -2 -8 5 -22 7 -33 5 -11 -1 -16 2 -12 8 4
6 1 11 -6 11 -15 0 -43 83 -33 99 3 6 0 8 -8 5 -11 -4 -14 2 -12 25 1 17 -2
29 -8 28 -6 -1 -11 11 -12 26 -1 15 -7 38 -12 50 -23 49 -33 79 -33 99 0 12
-5 18 -13 15 -9 -3 -12 4 -11 24 1 16 -1 29 -5 29 -4 0 -8 7 -9 15 -1 8 -3 22
-4 30 -1 8 -5 15 -10 15 -4 0 -8 8 -8 18 0 10 -6 24 -12 31 -11 11 -10 12 2 6
13 -8 13 -6 1 8 -7 9 -11 23 -8 31 3 8 -3 22 -13 31 -11 10 -16 24 -12 38 5
20 4 21 -11 8 -15 -12 -17 -12 -11 3 6 17 -16 107 -25 101 -4 -2 -7 11 -8 28
-1 17 -6 33 -10 36 -5 3 -10 17 -12 31 -1 14 -8 28 -13 31 -6 4 -8 16 -5 28 3
11 0 19 -5 18 -10 -2 -16 14 -20 56 -1 9 -6 17 -10 17 -4 0 -8 9 -8 20 0 11
-6 20 -12 20 -9 0 -8 4 2 10 10 6 11 10 3 10 -7 0 -13 12 -13 26 0 17 -4 23
-12 18 -7 -5 -9 -2 -5 8 3 9 -1 25 -10 37 -8 12 -15 38 -15 58 0 25 -3 32 -9
22 -6 -10 -9 -8 -10 11 -2 28 -4 35 -14 67 -4 13 -12 20 -19 16 -6 -4 -4 2 4
12 9 11 10 16 3 11 -9 -5 -13 2 -13 23 0 17 -5 31 -10 31 -6 0 -10 6 -9 13 5
43 -4 55 -29 38z m1321 -1556 c-3 -9 -8 -14 -10 -11 -3 3 -2 9 2 15 9 16 15
13 8 -4z m-1753 -3541 c0 -8 -19 -13 -24 -6 -3 5 1 9 9 9 8 0 15 -2 15 -3z"/>
<path d="M3090 3626 c0 -2 7 -7 16 -10 8 -3 12 -2 9 4 -6 10 -25 14 -25 6z"/>
</g>
</svg>
