<?xml version="1.0" standalone="no"?>
<!DOCTYPE svg PUBLIC "-//W3C//DTD SVG 20010904//EN"
 "http://www.w3.org/TR/2001/REC-SVG-20010904/DTD/svg10.dtd">
<svg version="1.0" xmlns="http://www.w3.org/2000/svg"
 width="460.000000pt" height="460.000000pt" viewBox="0 0 460.000000 460.000000"
 preserveAspectRatio="xMidYMid meet">
<metadata>
Created by potrace 1.14, written by Peter Selinger 2001-2017
</metadata>
<g transform="translate(0.000000,460.000000) scale(0.100000,-0.100000)"
fill="#000000" stroke="none">
<path d="M2375 4584 c-11 -2 -40 -10 -65 -17 -25 -6 -47 -12 -50 -12 -39 -8
-104 -34 -183 -74 -66 -34 -119 -53 -165 -60 -148 -23 -313 -114 -441 -241
-18 -19 -41 -29 -76 -33 -28 -4 -67 -18 -87 -32 -35 -24 -36 -27 -35 -80 1
-31 -4 -59 -10 -63 -6 -4 -14 -22 -18 -39 -3 -18 -11 -35 -16 -38 -11 -8 -79
-142 -79 -158 0 -7 -6 -24 -14 -39 -8 -15 -17 -42 -21 -60 -4 -18 -11 -37 -15
-43 -4 -5 -20 -55 -36 -110 l-28 -100 0 -388 c-1 -316 -4 -389 -15 -396 -7 -5
-9 -10 -4 -12 18 -8 53 -81 53 -113 0 -45 -23 -64 -38 -32 -6 13 -38 53 -71
89 -34 35 -61 72 -61 81 0 23 -10 20 -41 -15 -30 -34 -66 -157 -54 -186 3 -10
13 -59 20 -108 8 -50 21 -104 29 -120 9 -17 16 -42 16 -57 0 -15 4 -29 10 -33
5 -3 7 -12 3 -20 -3 -8 0 -15 6 -15 6 0 11 -6 11 -14 0 -8 5 -27 10 -42 8 -19
14 -24 21 -17 8 8 3 31 -16 79 -31 77 -60 207 -51 230 5 14 8 14 21 0 8 -8 15
-18 15 -21 0 -8 46 -124 72 -182 10 -24 23 -54 28 -67 6 -17 21 -28 47 -35 41
-12 289 -13 388 -2 81 8 82 10 19 156 -7 17 -16 48 -20 69 -4 22 -13 51 -20
65 -8 14 -14 33 -14 42 0 9 -7 22 -15 29 -8 7 -15 21 -15 32 0 15 5 19 20 15
11 -3 20 -2 20 2 0 5 27 29 60 55 l60 47 0 -44 c0 -25 7 -61 15 -81 8 -20 12
-36 8 -36 -5 0 4 -6 18 -14 14 -7 63 -16 108 -20 80 -7 83 -7 119 20 20 16 39
32 40 36 2 5 13 13 24 19 19 10 20 9 16 -20 -5 -35 5 -39 30 -14 13 13 17 36
17 103 l0 87 22 -16 c23 -17 67 -99 79 -144 6 -25 9 -27 38 -21 38 8 51 25 65
89 13 55 44 91 103 118 99 46 215 -12 239 -120 15 -63 37 -90 75 -89 24 1 29
6 35 34 9 45 47 113 73 133 l21 16 0 -88 c0 -84 1 -88 29 -112 20 -17 45 -26
88 -31 107 -11 110 -10 180 57 35 33 50 28 38 -13 -10 -34 0 -39 21 -12 30 37
39 64 39 113 l0 50 60 -47 c33 -26 60 -50 60 -55 0 -4 9 -5 20 -2 15 4 20 0
20 -15 0 -11 -7 -25 -15 -32 -8 -7 -15 -19 -15 -27 0 -8 -6 -29 -14 -46 -8
-18 -19 -54 -26 -82 -6 -27 -15 -54 -19 -60 -15 -20 -45 -125 -37 -132 21 -21
382 -31 449 -12 26 7 41 18 47 35 5 13 18 43 28 67 26 58 72 174 72 182 0 3 7
13 15 21 13 14 16 14 21 0 9 -23 -20 -153 -51 -230 -15 -37 -24 -70 -21 -73 8
-8 36 17 36 32 0 7 16 62 35 121 19 60 39 143 45 184 6 41 13 83 16 93 3 10 1
31 -4 45 -6 15 -13 44 -17 65 -4 23 -18 50 -38 70 -29 29 -32 30 -35 12 -2
-11 -25 -42 -52 -70 -26 -27 -59 -67 -73 -88 -14 -21 -28 -33 -32 -27 -3 5 -3
15 0 20 4 6 11 38 15 72 5 34 15 65 22 71 9 6 8 7 -4 3 -17 -5 -18 16 -19 352
0 196 -4 380 -9 407 -20 116 -48 201 -106 319 -13 28 -24 68 -24 90 0 23 -4
57 -9 77 -10 43 -5 54 29 63 128 37 122 71 -43 230 -79 76 -161 136 -185 136
-6 0 -12 4 -14 9 -9 24 -208 79 -401 110 -65 11 -121 22 -124 25 -3 3 2 17 11
31 9 14 18 42 19 62 2 33 -1 38 -28 46 -16 5 -38 13 -48 18 -20 11 -221 21
-252 13z m-325 -980 c116 -10 157 -16 215 -30 134 -34 356 -132 471 -209 45
-30 77 -45 99 -45 40 0 45 13 45 128 0 61 3 82 13 82 7 0 53 -40 101 -90 48
-49 97 -92 108 -96 14 -4 18 -12 14 -28 -3 -12 -8 -74 -12 -137 -4 -69 -14
-139 -26 -177 -20 -63 -21 -64 -52 -58 -135 28 -251 14 -390 -46 -163 -70
-186 -82 -198 -95 -20 -24 -95 -53 -138 -53 -43 0 -118 29 -138 53 -12 13 -35
25 -198 95 -139 60 -255 74 -390 46 -31 -6 -32 -5 -53 60 -11 36 -21 89 -21
118 0 29 -7 114 -15 188 -8 74 -11 161 -8 193 6 55 8 59 42 74 85 37 131 43
306 37 94 -3 195 -7 225 -10z m-342 -801 c83 -49 112 -76 112 -107 0 -27 -9
-32 -85 -41 -64 -8 -104 -20 -187 -56 -74 -32 -93 -30 -101 11 -7 34 2 100 14
100 5 0 9 6 9 14 0 18 60 76 96 92 47 20 92 16 142 -13z m1320 13 c38 -13 102
-72 102 -92 0 -8 4 -14 9 -14 12 0 21 -66 14 -100 -8 -41 -27 -43 -101 -11
-83 36 -123 48 -187 56 -76 9 -85 14 -85 41 0 24 18 46 56 72 97 64 127 72
192 48z m-204 -268 c16 -26 -4 -53 -40 -53 -23 0 -30 5 -32 23 -7 47 47 69 72
30z m-1131 -10 c22 -34 -41 -66 -71 -36 -7 7 -12 20 -12 29 0 31 65 36 83 7z"/>
<path d="M2122 2103 c-25 -36 -52 -89 -52 -102 0 -16 43 -23 71 -13 30 12 66
107 47 129 -17 21 -45 15 -66 -14z"/>
<path d="M2412 2117 c-19 -22 16 -117 47 -129 30 -11 71 -3 71 15 0 7 -15 37
-33 67 -33 57 -64 73 -85 47z"/>
<path d="M710 1895 c-12 -15 -11 -50 25 -765 l15 -305 -27 -20 c-15 -11 -35
-29 -45 -40 -68 -78 -98 -118 -98 -131 0 -8 -9 -23 -20 -34 -11 -11 -18 -20
-15 -20 2 0 -5 -21 -16 -47 -23 -52 -67 -191 -75 -237 -2 -16 -8 -36 -13 -45
-5 -9 -11 -32 -15 -51 -3 -19 -10 -54 -15 -78 -10 -53 -4 -57 74 -47 l54 6 10
52 c6 29 15 90 21 137 5 47 12 96 15 110 3 14 12 57 20 95 18 89 31 128 67
191 35 64 63 91 71 71 3 -8 8 -95 12 -193 8 -234 24 -413 41 -445 7 -14 26
-31 41 -38 21 -8 397 -11 1470 -9 l1441 3 26 24 c14 13 28 35 31 50 5 25 21
271 32 506 3 61 9 114 14 119 9 11 41 -25 78 -88 31 -54 49 -106 66 -191 8
-38 17 -81 20 -95 3 -14 10 -63 15 -110 6 -47 15 -108 21 -137 l10 -51 62 -9
c37 -5 64 -5 66 1 6 14 -21 176 -29 176 -4 0 -12 32 -19 70 -7 39 -17 70 -22
70 -4 0 -11 23 -15 51 -4 28 -12 56 -18 62 -7 7 -17 31 -24 54 -7 23 -18 48
-25 55 -7 7 -17 23 -22 34 -12 25 -72 100 -100 125 -11 10 -32 28 -47 41 l-28
23 10 240 c13 303 30 620 36 708 7 78 0 117 -20 117 -26 0 -46 -64 -46 -149 0
-44 -5 -104 -10 -133 -26 -127 -32 -150 -41 -137 -6 9 -9 10 -9 2 0 -18 -40
-11 -41 7 0 8 0 61 1 118 1 86 -1 107 -16 123 -9 10 -24 19 -32 19 -7 0 -26
12 -41 28 -39 38 -155 122 -170 122 -25 0 -179 -121 -189 -148 -5 -15 -26 -44
-46 -65 -20 -21 -36 -45 -36 -53 0 -8 -4 -12 -10 -9 -5 3 -42 6 -81 6 -60 0
-72 3 -76 18 -5 22 -53 17 -53 -5 0 -18 -18 -18 -36 0 -16 17 -19 30 -4 21 6
-3 10 0 10 8 0 8 -7 18 -16 21 -22 9 -24 8 -25 -11 0 -15 -2 -15 -9 2 l-9 20
-1 -20 -1 -20 -8 20 -8 20 -5 -20 c-5 -16 -6 -17 -7 -2 -1 10 -9 17 -21 17
-12 0 -20 -7 -21 -17 0 -15 -2 -15 -9 2 l-9 20 -1 -20 c-1 -20 -1 -20 -9 0 -4
11 -19 22 -32 25 -13 3 -24 12 -24 19 0 8 -8 15 -17 17 -12 1 -18 -4 -18 -16
0 -12 -6 -17 -17 -16 -10 2 -18 8 -18 14 0 6 -4 14 -8 19 -5 4 -8 3 -7 -2 5
-22 -1 -35 -14 -35 -8 0 -16 10 -18 22 -2 14 -11 24 -23 25 l-20 3 20 -10 c14
-7 6 -8 -30 -3 -27 3 -84 8 -125 9 -214 7 -199 6 -155 14 l40 7 -40 3 c-36 2
-37 3 -15 10 l25 8 -25 2 -25 2 25 7 25 7 -27 6 c-22 4 -28 1 -28 -13 0 -11
-6 -16 -17 -15 -10 2 -18 9 -18 17 0 10 -19 15 -75 17 -71 3 -111 16 -79 26 8
2 21 7 29 9 8 3 -4 5 -27 5 -35 0 -43 -4 -46 -22 -4 -20 -4 -20 -6 2 -1 17 -6
22 -18 20 -10 -2 -17 -10 -15 -17 1 -7 -2 -10 -8 -6 -6 3 -8 11 -5 16 4 5 -17
10 -47 10 -29 1 -138 4 -243 7 -104 3 -234 6 -287 6 -54 -1 -98 2 -98 5 0 3
-120 8 -268 10 -147 2 -270 5 -273 7 -4 2 -12 -3 -19 -11z m2780 -67 c17 -12
30 -25 30 -30 0 -4 -27 -8 -60 -8 -33 0 -60 3 -60 7 0 6 50 52 58 53 2 0 16
-10 32 -22z m-1013 -84 c-3 -3 -12 -4 -19 -1 -8 3 -5 6 6 6 11 1 17 -2 13 -5z
m0 -20 c-3 -3 -12 -4 -19 -1 -8 3 -5 6 6 6 11 1 17 -2 13 -5z m110 0 c-3 -3
-12 -4 -19 -1 -8 3 -5 6 6 6 11 1 17 -2 13 -5z m993 -23 c0 -17 5 -33 10 -36
15 -9 38 12 42 38 2 17 10 22 33 22 l30 0 3 -101 c2 -87 0 -102 -14 -108 -25
-10 -54 3 -54 23 0 23 -28 47 -40 35 -4 -5 -10 -20 -12 -34 -2 -17 -10 -26
-25 -28 -15 -2 -23 -11 -25 -30 -3 -26 -5 -27 -68 -27 -63 0 -65 1 -68 27 -2
19 -10 28 -25 30 -19 3 -22 10 -25 51 -4 57 -17 60 -82 17 -25 -16 -48 -30
-52 -30 -13 0 -9 59 6 88 38 74 85 92 239 92 l127 0 0 -29z m-455 -91 c3 -5
-1 -10 -9 -10 -9 0 -16 5 -16 10 0 6 4 10 9 10 6 0 13 -4 16 -10z m53 -13 c2
-10 -3 -14 -15 -13 -10 2 -19 10 -21 19 -2 10 3 14 15 13 10 -2 19 -10 21 -19z
m532 -112 c0 -8 -9 -15 -20 -15 -25 0 -26 17 -2 23 9 3 18 5 20 6 1 0 2 -6 2
-14z m-2632 -241 c15 -5 22 -14 22 -32 0 -24 -2 -24 -46 -18 -26 3 -62 6 -80
6 -30 0 -34 3 -34 25 0 24 3 25 58 25 31 0 67 -3 80 -6z m1308 -45 c-22 -52
-86 -78 -86 -36 0 29 28 63 61 76 34 13 42 0 25 -40z m49 -76 c40 -19 42 -28
15 -63 -12 -15 -20 -41 -20 -65 0 -33 6 -46 29 -65 28 -24 28 -26 14 -55 -25
-50 -64 -85 -94 -85 -15 0 -31 5 -35 11 -4 7 -24 9 -55 6 -44 -5 -49 -4 -49
14 0 12 -10 23 -25 29 -14 5 -25 13 -24 17 4 24 -4 33 -30 33 -28 0 -30 2 -36
55 -10 77 0 119 36 149 32 27 70 33 113 16 18 -6 36 -5 63 5 50 18 56 18 98
-2z m-1366 -54 c29 -35 32 -43 19 -55 -12 -12 -18 -8 -46 28 -56 73 -32 98 27
27z m275 -139 c15 -15 -4 -30 -38 -30 -18 0 -61 3 -95 6 -52 6 -61 10 -61 27
0 19 4 20 93 13 50 -4 96 -11 101 -16z m820 -56 c3 -8 2 -12 -4 -9 -6 3 -10
10 -10 16 0 14 7 11 14 -7z m-284 -184 c25 0 60 2 78 6 30 6 32 5 32 -24 0
-17 5 -43 10 -57 7 -19 7 -40 -1 -67 -8 -33 -17 -43 -48 -55 l-37 -14 4 -65 4
-65 -53 3 c-53 3 -54 4 -57 36 -3 28 -7 32 -32 32 -20 0 -35 9 -50 30 -24 33
-13 41 14 11 22 -25 63 -33 70 -14 10 25 7 30 -34 48 -47 21 -65 64 -49 118 5
17 9 45 9 60 0 29 1 29 48 23 26 -3 67 -6 92 -6z m1438 -108 c2 -6 -5 -8 -16
-6 -15 4 -21 -3 -31 -35 -6 -23 -16 -41 -21 -41 -13 0 -13 0 4 48 13 35 13 41
0 46 -8 3 -14 10 -14 15 0 13 73 -12 78 -27z m-949 -124 c-11 -29 -25 -70 -31
-90 -12 -44 -25 -49 -34 -13 -10 38 4 91 32 125 42 50 58 39 33 -22z m-1071
-85 l-98 -4 0 -84 0 -84 93 -4 92 -3 -97 -2 -98 -2 0 95 0 95 103 -2 102 -2
-97 -3z"/>
<path d="M2048 1843 c6 -2 18 -2 25 0 6 3 1 5 -13 5 -14 0 -19 -2 -12 -5z"/>
<path d="M2369 1829 c-7 -35 -6 -39 12 -39 10 0 19 4 19 9 0 8 -29 37 -31 30z"/>
<path d="M2338 1773 c7 -3 16 -2 19 1 4 3 -2 6 -13 5 -11 0 -14 -3 -6 -6z"/>
<path d="M3742 1512 c-11 -25 -11 -25 4 -10 9 9 15 21 13 27 -2 6 -10 -2 -17
-17z"/>
</g>
</svg>
