<?xml version="1.0" standalone="no"?>
<!DOCTYPE svg PUBLIC "-//W3C//DTD SVG 20010904//EN"
 "http://www.w3.org/TR/2001/REC-SVG-20010904/DTD/svg10.dtd">
<svg version="1.0" xmlns="http://www.w3.org/2000/svg"
 width="384.000000pt" height="384.000000pt" viewBox="0 0 384.000000 384.000000"
 preserveAspectRatio="xMidYMid meet">

<g transform="translate(0.000000,384.000000) scale(0.100000,-0.100000)"
fill="#000000" stroke="none">
<path d="M1990 3824 c-86 -17 -186 -51 -259 -90 -46 -24 -95 -44 -109 -44 -85
0 -262 -85 -352 -170 -37 -35 -66 -53 -90 -57 -19 -3 -52 -14 -72 -25 -35 -17
-38 -22 -38 -61 0 -31 -12 -67 -46 -132 -46 -90 -103 -235 -129 -330 -27 -97
-34 -213 -29 -495 4 -235 7 -287 20 -301 12 -13 15 -44 13 -155 -1 -79 4 -173
12 -216 l13 -78 39 0 c32 0 37 3 33 18 -23 81 -28 133 -31 345 -3 230 0 274
24 397 5 30 21 114 35 185 29 158 55 230 106 294 46 58 90 87 173 112 71 22
120 23 267 9 58 -6 173 -14 255 -19 129 -6 160 -11 220 -35 100 -40 152 -65
221 -108 70 -43 84 -46 84 -18 0 11 9 29 20 40 11 11 20 31 20 44 0 36 14 39
47 13 49 -41 144 -98 153 -92 5 3 14 24 20 45 6 22 15 40 20 40 18 0 132 -126
150 -165 10 -22 28 -94 39 -160 12 -66 29 -156 38 -200 13 -62 17 -136 18
-330 1 -231 -6 -316 -31 -397 -4 -15 1 -18 33 -18 l39 0 13 77 c8 44 13 138
12 216 -1 110 1 142 14 159 22 33 22 594 0 703 -16 77 -51 179 -84 243 -12 23
-20 65 -22 112 l-4 74 42 16 c61 23 70 34 49 65 -45 69 -179 187 -266 234 -58
31 -267 85 -377 97 -70 7 -72 11 -47 74 9 23 14 43 11 46 -21 21 -212 48 -267
38z"/>
<path d="M1325 2443 c-55 -17 -150 -76 -159 -98 -7 -19 -5 -19 68 4 153 47
259 54 363 22 68 -21 85 -15 50 16 -34 31 -77 50 -142 62 -77 14 -119 13 -180
-6z"/>
<path d="M2320 2446 c-61 -13 -94 -29 -127 -59 -35 -31 -18 -37 50 -16 104 32
210 25 363 -22 73 -23 75 -23 68 -4 -10 25 -110 84 -170 100 -68 18 -108 18
-184 1z"/>
<path d="M1407 2200 c-93 -16 -180 -74 -233 -155 -27 -41 -10 -40 46 4 29 23
56 41 61 41 4 0 30 14 56 30 57 37 71 37 79 5 9 -36 -12 -57 -48 -50 -27 6
-28 5 -28 -30 0 -50 32 -92 80 -106 33 -10 43 -9 72 7 18 11 41 36 51 57 16
31 17 42 7 72 -6 19 -25 46 -41 60 l-30 25 33 -6 c18 -4 37 -11 43 -15 5 -5
18 -9 29 -9 22 0 96 -73 96 -95 0 -8 5 -15 11 -15 10 0 7 18 -12 65 -32 82
-158 135 -272 115z"/>
<path d="M2317 2199 c-92 -22 -144 -69 -171 -156 -11 -33 9 -28 24 6 15 37 65
85 82 78 7 -2 20 1 28 8 8 7 29 16 45 19 28 6 30 4 32 -26 3 -40 -14 -61 -43
-54 -42 11 -43 -55 -2 -101 36 -39 73 -48 117 -29 68 31 92 109 50 168 l-21
30 63 -32 c35 -18 83 -48 106 -66 51 -42 63 -30 23 22 -62 79 -128 118 -225
134 -33 5 -62 9 -65 9 -3 -1 -22 -5 -43 -10z"/>
<path d="M727 2104 c-12 -12 5 -32 49 -60 35 -22 52 -44 77 -93 36 -73 49 -61
17 15 -28 63 -64 110 -100 129 -33 17 -34 17 -43 9z"/>
<path d="M3064 2091 c-37 -23 -67 -62 -94 -127 -32 -75 -19 -86 17 -13 25 49
42 71 77 93 44 28 61 48 49 60 -9 9 -15 8 -49 -13z"/>
<path d="M2812 1523 c-40 -30 -72 -62 -72 -70 0 -9 6 -13 15 -10 21 9 221 10
234 3 6 -4 11 -16 11 -27 0 -10 4 -19 9 -19 12 0 31 55 22 67 -6 9 -115 93
-136 106 -6 3 -43 -19 -83 -50z m108 5 c17 -12 30 -25 30 -30 0 -4 -27 -8 -60
-8 -33 0 -60 4 -60 9 0 9 47 51 57 51 2 0 17 -10 33 -22z"/>
<path d="M928 1495 c-13 -21 -37 -64 -54 -94 -24 -43 -35 -55 -50 -52 -79 18
-117 -16 -50 -44 36 -15 36 -16 21 -45 -35 -68 1 -94 50 -36 l31 37 93 -41
c52 -22 96 -38 99 -35 4 3 0 24 -8 47 -14 39 -19 43 -74 59 -32 10 -62 21 -66
26 -5 4 10 34 31 67 38 55 39 60 28 95 -17 55 -26 58 -51 16z"/>
<path d="M2755 1328 c-17 -7 -19 -17 -17 -53 l4 -45 44 0 c48 0 59 14 20 24
-20 5 -25 13 -28 45 -3 34 -5 37 -23 29z"/>
<path d="M2998 1288 c-2 -13 -13 -27 -25 -33 -36 -15 -27 -25 22 -25 50 0 50
0 33 47 -14 38 -25 42 -30 11z"/>
<path d="M2642 1170 c0 -14 2 -19 5 -12 2 6 2 18 0 25 -3 6 -5 1 -5 -13z"/>
<path d="M2692 1165 c0 -16 2 -22 5 -12 2 9 2 23 0 30 -3 6 -5 -1 -5 -18z"/>
<path d="M2721 1168 c0 -18 2 -19 7 -7 4 9 17 15 30 14 12 -1 22 2 22 7 0 4
-13 8 -30 8 -25 0 -30 -4 -29 -22z"/>
<path d="M2800 1179 c0 -5 5 -7 10 -4 6 3 10 1 10 -6 0 -9 3 -9 14 0 11 10 15
8 19 -6 4 -14 5 -13 6 5 1 18 -4 22 -29 22 -16 0 -30 -5 -30 -11z"/>
<path d="M2970 1170 c0 -24 18 -36 33 -21 9 9 8 11 -5 6 -10 -4 -18 -3 -18 3
0 6 5 12 12 14 7 3 6 7 -5 11 -12 5 -17 1 -17 -13z"/>
<path d="M3130 1183 c8 -3 18 -11 22 -17 5 -7 8 -4 8 7 0 11 -7 17 -22 16 -16
0 -18 -2 -8 -6z"/>
<path d="M2610 1170 c0 -5 5 -10 11 -10 5 0 7 5 4 10 -3 6 -8 10 -11 10 -2 0
-4 -4 -4 -10z"/>
<path d="M2870 1175 c0 -15 18 -40 24 -34 3 3 -1 14 -9 25 -8 10 -14 15 -15 9z"/>
<path d="M2920 1170 c0 -6 7 -10 15 -10 8 0 15 2 15 4 0 2 -7 6 -15 10 -8 3
-15 1 -15 -4z"/>
<path d="M3078 1163 c7 -3 16 -2 19 1 4 3 -2 6 -13 5 -11 0 -14 -3 -6 -6z"/>
<path d="M1060 1000 c0 -18 -5 -20 -52 -15 -29 2 -92 7 -139 10 l-86 5 -7 -73
c-4 -39 -9 -98 -13 -129 -5 -54 -4 -57 18 -62 49 -11 374 -33 382 -26 9 8 27
162 27 241 0 65 -5 69 -81 69 -42 0 -49 -3 -49 -20z m-168 -97 c38 -40 37 -48
-5 -77 -45 -31 -69 -25 -37 9 l22 24 -21 29 c-34 48 -1 60 41 15z m232 -124
c5 -4 6 -14 3 -21 -4 -11 -19 -13 -73 -7 -38 5 -75 8 -81 8 -7 1 -13 10 -13
20 0 18 6 19 78 14 42 -3 81 -9 86 -14z"/>
<path d="M2207 940 c-76 -60 -13 -218 98 -249 75 -20 128 -8 183 42 35 32 29
46 -16 34 -21 -6 -50 -7 -64 -4 -37 10 -85 52 -92 83 -9 35 18 78 45 71 26 -7
24 8 -3 27 -33 24 -119 21 -151 -4z"/>
<path d="M1484 656 c-92 -40 -139 -157 -101 -249 16 -36 89 -107 112 -107 8 0
15 9 15 20 0 11 -7 20 -15 20 -20 0 -82 56 -72 66 4 4 17 -2 30 -14 26 -24 57
-29 57 -9 0 6 -14 20 -30 29 -39 22 -44 36 -36 111 l7 62 104 0 103 0 5 -30
c3 -16 8 -41 12 -55 10 -38 -11 -80 -46 -93 -23 -9 -29 -16 -25 -32 3 -11 6
-32 6 -47 0 -37 20 -36 66 4 92 81 96 198 11 286 -48 50 -137 66 -203 38z"/>
<path d="M2665 560 c-16 -26 -52 -148 -46 -157 3 -5 21 -15 39 -21 18 -6 45
-20 59 -32 29 -23 66 -26 80 -7 16 19 32 77 38 134 5 51 4 53 -22 59 -16 3
-48 12 -72 20 -53 17 -68 17 -76 4z m83 -57 c33 -14 34 -17 15 -20 -13 -3 -23
-8 -23 -13 0 -5 -5 -21 -10 -36 -7 -18 -14 -24 -21 -17 -6 6 -6 19 1 38 7 20
8 31 0 39 -11 11 -14 26 -5 26 3 0 22 -8 43 -17z"/>
<path d="M2943 514 c-8 -22 10 -49 32 -49 22 0 40 27 32 49 -8 21 -56 21 -64
0z"/>
<path d="M800 435 l0 -85 85 0 86 0 -3 83 -3 82 -82 3 -83 3 0 -86z"/>
<path d="M2272 443 c-13 -5 -35 -43 -47 -82 l-8 -25 32 27 c40 34 75 34 106 2
29 -29 30 -38 8 -75 -29 -49 -74 -48 -114 2 -55 71 -113 128 -129 128 -10 0
-23 -7 -30 -15 -10 -12 -3 -26 41 -82 66 -83 75 -93 108 -115 30 -21 95 -23
131 -5 58 29 87 118 57 177 -25 50 -105 83 -155 63z"/>
<path d="M2917 424 c-3 -5 -12 -34 -21 -64 -14 -48 -14 -56 -1 -69 11 -11 21
-13 42 -5 21 7 32 22 47 62 12 33 15 57 10 62 -14 14 -71 24 -77 14z"/>
<path d="M660 121 c0 -11 11 -33 24 -48 l24 -28 534 1 c2044 4 1876 2 1898 24
11 11 20 27 20 35 0 12 -7 11 -40 -6 l-40 -21 -1171 7 -1170 8 -35 23 c-42 29
-44 29 -44 5z"/>
</g>
</svg>
